# Blender v2.93.4 OBJ File: ''
# www.blender.org
mtllib box.mtl
o Cube
v 1.000000 1.000000 -1.000000
v 1.000000 -1.000000 -1.000000
v 1.000000 1.000000 1.000000
v 1.000000 -1.000000 1.000000
v -1.000000 1.000000 -1.000000
v -1.000000 -1.000000 -1.000000
v -1.000000 1.000000 1.000000
v -1.000000 -1.000000 1.000000
v -1.000000 -1.000000 -1.000000
v -1.000000 -1.000000 1.000000
v -1.000000 1.000000 1.000000
v -1.000000 1.000000 -1.000000
v 0.780744 1.000000 -0.780744
v -0.780744 1.000000 -0.780744
v -0.780744 1.000000 0.780744
v 0.780744 1.000000 0.780744
v 0.780744 -0.780744 1.000000
v 0.780744 0.780744 1.000000
v -0.780744 0.780744 1.000000
v -0.780744 -0.780744 1.000000
v -1.000000 -0.780744 0.780744
v -1.000000 0.780744 0.780744
v -1.000000 0.780744 -0.780744
v -1.000000 -0.780744 -0.780744
v -0.780744 -1.000000 -0.780744
v 0.780744 -1.000000 -0.780744
v 0.780744 -1.000000 0.780744
v -0.780744 -1.000000 0.780744
v 1.000000 -0.780744 -0.780744
v 1.000000 0.780744 -0.780744
v 1.000000 0.780744 0.780744
v 1.000000 -0.780744 0.780744
v -0.780744 -0.780744 -1.000000
v -0.780744 0.780744 -1.000000
v 0.780744 0.780744 -1.000000
v 0.780744 -0.780744 -1.000000
v 0.780744 0.947496 -0.780744
v -0.780744 0.947496 -0.780744
v -0.780744 0.947496 0.780744
v 0.780744 0.947496 0.780744
v 0.780744 -0.780744 0.947496
v 0.780744 0.780744 0.947496
v -0.780744 0.780744 0.947496
v -0.780744 -0.780744 0.947496
v -0.947496 -0.780744 0.780744
v -0.947496 0.780744 0.780744
v -0.947496 0.780744 -0.780744
v -0.947496 -0.780744 -0.780744
v -0.780744 -0.947496 -0.780744
v 0.780744 -0.947496 -0.780744
v 0.780744 -0.947496 0.780744
v -0.780744 -0.947496 0.780744
v 0.947496 -0.780744 -0.780744
v 0.947496 0.780744 -0.780744
v 0.947496 0.780744 0.780744
v 0.947496 -0.780744 0.780744
v -0.780744 -0.780744 -0.947496
v -0.780744 0.780744 -0.947496
v 0.780744 0.780744 -0.947496
v 0.780744 -0.780744 -0.947496
vt 0.375000 0.846054
vt 0.375000 0.879978
vt 0.375000 0.879978
vt 0.375000 0.846054
vt 0.625000 0.846054
vt 0.625000 0.846054
vt 0.625000 0.879978
vt 0.625000 0.879978
vt 0.625000 0.913902
vt 0.875000 0.913902
vt 0.847593 0.917621
vt 0.652407 0.917621
vt 0.875000 0.947827
vt 0.847593 0.944108
vt 0.625000 0.947827
vt 0.652407 0.944108
vt 0.375000 0.947827
vt 0.597593 0.951546
vt 0.402407 0.951546
vt 0.625000 0.981751
vt 0.597593 0.978032
vt 0.375000 0.981751
vt 0.402407 0.978032
vt 0.597593 0.849773
vt 0.402407 0.849773
vt 0.597593 0.876259
vt 0.402407 0.876259
vt 0.125000 0.913902
vt 0.375000 0.913902
vt 0.347593 0.917621
vt 0.152407 0.917621
vt 0.347593 0.944108
vt 0.125000 0.947827
vt 0.152407 0.944108
vt 0.597593 0.917621
vt 0.402407 0.917621
vt 0.597593 0.944108
vt 0.402407 0.944108
vt 0.597593 0.883697
vt 0.402407 0.883697
vt 0.597593 0.910183
vt 0.402407 0.910183
vt 0.615202 0.072301
vt 0.810388 0.072301
vt 0.810388 0.095489
vt 0.615202 0.095489
vt 0.847593 0.917621
vt 0.652407 0.917621
vt 0.847593 0.944108
vt 0.652407 0.944108
vt 0.365202 0.102001
vt 0.560388 0.102001
vt 0.560388 0.125189
vt 0.365202 0.125189
vt 0.560388 0.102001
vt 0.365202 0.102001
vt 0.597593 0.978032
vt 0.597593 0.951546
vt 0.402407 0.978032
vt 0.402407 0.951546
vt 0.365202 0.012902
vt 0.560388 0.012902
vt 0.560388 0.036090
vt 0.365202 0.036090
vt 0.597593 0.849773
vt 0.402407 0.849773
vt 0.597593 0.876259
vt 0.402407 0.876259
vt 0.115202 0.072301
vt 0.310388 0.072301
vt 0.310388 0.095489
vt 0.115202 0.095489
vt 0.347593 0.917621
vt 0.152407 0.917621
vt 0.347593 0.944108
vt 0.152407 0.944108
vt 0.365202 0.072301
vt 0.560388 0.072301
vt 0.560388 0.095489
vt 0.365202 0.095489
vt 0.597593 0.917621
vt 0.402407 0.917621
vt 0.597593 0.944108
vt 0.402407 0.944108
vt 0.365202 0.042601
vt 0.560388 0.042601
vt 0.560388 0.065790
vt 0.365202 0.065790
vt 0.597593 0.883697
vt 0.402407 0.883697
vt 0.597593 0.910183
vt 0.402407 0.910183
vn 0.0000 0.0000 1.0000
vn 0.0000 1.0000 0.0000
vn -1.0000 0.0000 0.0000
vn 0.0000 -1.0000 0.0000
vn 1.0000 0.0000 0.0000
vn 0.0000 0.0000 -1.0000
usemtl Material
s off
f 8/1/1 6/2/1 9/3/1 10/4/1
f 7/5/1 8/1/1 10/4/1 11/6/1
f 6/2/1 5/7/1 12/8/1 9/3/1
f 5/7/1 7/5/1 11/6/1 12/8/1
f 1/9/2 12/10/2 14/11/2 13/12/2
f 12/10/2 11/13/2 15/14/2 14/11/2
f 11/13/2 3/15/2 16/16/2 15/14/2
f 3/15/2 1/9/2 13/12/2 16/16/2
f 4/17/1 3/15/1 18/18/1 17/19/1
f 3/15/1 11/20/1 19/21/1 18/18/1
f 11/20/1 10/22/1 20/23/1 19/21/1
f 10/22/1 4/17/1 17/19/1 20/23/1
f 8/1/3 7/5/3 22/24/3 21/25/3
f 7/5/3 5/7/3 23/26/3 22/24/3
f 5/7/3 6/2/3 24/27/3 23/26/3
f 6/2/3 8/1/3 21/25/3 24/27/3
f 9/28/4 2/29/4 26/30/4 25/31/4
f 2/29/4 4/17/4 27/32/4 26/30/4
f 4/17/4 10/33/4 28/34/4 27/32/4
f 10/33/4 9/28/4 25/31/4 28/34/4
f 2/29/5 1/9/5 30/35/5 29/36/5
f 1/9/5 3/15/5 31/37/5 30/35/5
f 3/15/5 4/17/5 32/38/5 31/37/5
f 4/17/5 2/29/5 29/36/5 32/38/5
f 9/3/6 12/8/6 34/39/6 33/40/6
f 12/8/6 1/9/6 35/41/6 34/39/6
f 1/9/6 2/29/6 36/42/6 35/41/6
f 2/29/6 9/3/6 33/40/6 36/42/6
f 37/43/2 38/44/2 39/45/2 40/46/2
f 14/11/1 38/47/1 37/48/1 13/12/1
f 15/14/5 39/49/5 38/47/5 14/11/5
f 16/16/6 40/50/6 39/49/6 15/14/6
f 13/12/3 37/48/3 40/50/3 16/16/3
f 41/51/1 42/52/1 43/53/1 44/54/1
f 18/55/3 42/52/3 41/51/3 17/56/3
f 19/21/4 43/57/4 42/58/4 18/18/4
f 20/23/5 44/59/5 43/57/5 19/21/5
f 17/19/2 41/60/2 44/59/2 20/23/2
f 45/61/3 46/62/3 47/63/3 48/64/3
f 22/24/6 46/65/6 45/66/6 21/25/6
f 23/26/4 47/67/4 46/65/4 22/24/4
f 24/27/1 48/68/1 47/67/1 23/26/1
f 21/25/2 45/66/2 48/68/2 24/27/2
f 49/69/4 50/70/4 51/71/4 52/72/4
f 26/30/1 50/73/1 49/74/1 25/31/1
f 27/32/3 51/75/3 50/73/3 26/30/3
f 28/34/6 52/76/6 51/75/6 27/32/6
f 25/31/5 49/74/5 52/76/5 28/34/5
f 53/77/5 54/78/5 55/79/5 56/80/5
f 30/35/1 54/81/1 53/82/1 29/36/1
f 31/37/4 55/83/4 54/81/4 30/35/4
f 32/38/6 56/84/6 55/83/6 31/37/6
f 29/36/2 53/82/2 56/84/2 32/38/2
f 57/85/6 58/86/6 59/87/6 60/88/6
f 34/39/5 58/89/5 57/90/5 33/40/5
f 35/41/4 59/91/4 58/89/4 34/39/4
f 36/42/3 60/92/3 59/91/3 35/41/3
f 33/40/2 57/90/2 60/92/2 36/42/2
