# Blender v2.93.4 OBJ File: ''
# www.blender.org
mtllib debris(3).mtl
o Cube_Cube.001
v -0.057459 -1.000000 0.287718
v -0.057459 0.797197 0.287718
v -0.057459 -1.000000 -0.287718
v -0.026075 -0.008201 -0.287718
v 0.057459 -1.000000 0.287718
v 0.057459 0.797197 0.287718
v 0.057459 -1.000000 -0.287718
v 0.026075 -0.008201 -0.287718
v -0.057459 -1.000000 0.000000
v -0.021010 0.249600 0.000000
v 0.057459 -1.000000 0.000000
v 0.021010 0.249600 0.000000
v -0.057459 -1.000000 0.143859
v 0.036266 0.950390 0.143859
v -0.036266 0.950390 0.143859
v 0.057459 -1.000000 0.143859
v -0.039808 0.412183 -0.143859
v 0.057459 -1.000000 -0.143859
v -0.057459 -1.000000 -0.143859
v 0.039808 0.412183 -0.143859
vt 0.375000 0.187500
vt 0.625000 0.187500
vt 0.625000 0.250000
vt 0.375000 0.250000
vt 0.625000 0.500000
vt 0.375000 0.500000
vt 0.375000 0.687500
vt 0.625000 0.687500
vt 0.625000 0.750000
vt 0.375000 0.750000
vt 0.625000 1.000000
vt 0.375000 1.000000
vt 0.875000 0.687500
vt 0.875000 0.750000
vt 0.625000 0.562500
vt 0.875000 0.562500
vt 0.875000 0.625000
vt 0.625000 0.625000
vt 0.375000 0.562500
vt 0.375000 0.625000
vt 0.375000 0.062500
vt 0.625000 0.062500
vt 0.625000 0.125000
vt 0.375000 0.125000
vt 0.375000 0.000000
vt 0.625000 0.000000
vt 0.875000 0.500000
vt 0.125000 0.750000
vt 0.125000 0.687500
vt 0.125000 0.625000
vt 0.125000 0.562500
vt 0.125000 0.500000
vn -0.9968 0.0203 -0.0773
vn 0.0000 0.0000 -1.0000
vn 0.9975 0.0056 -0.0705
vn 0.0000 0.0000 1.0000
vn 0.0000 0.6846 0.7290
vn 0.0000 0.6627 0.7489
vn 0.9969 0.0203 0.0766
vn -0.9952 0.0179 -0.0964
vn -0.9975 0.0056 -0.0705
vn 0.0000 0.2011 -0.9796
vn 0.9952 0.0179 -0.0964
vn 0.9968 0.0203 -0.0773
vn 0.0000 0.3238 -0.9461
vn -0.9969 0.0203 0.0766
vn 0.0000 -1.0000 0.0000
usemtl None
s off
f 19/1/1 17/2/1 4/3/1 3/4/1
f 3/4/2 4/3/2 8/5/2 7/6/2
f 16/7/3 14/8/3 6/9/3 5/10/3
f 5/10/4 6/9/4 2/11/4 1/12/4
f 14/8/5 15/13/5 2/14/5 6/9/5
f 20/15/6 17/16/6 10/17/6 12/18/6
f 18/19/7 20/15/7 12/18/7 11/20/7
f 13/21/8 15/22/8 10/23/8 9/24/8
f 1/25/9 2/26/9 15/22/9 13/21/9
f 12/18/10 10/17/10 15/13/10 14/8/10
f 11/20/11 12/18/11 14/8/11 16/7/11
f 7/6/12 8/5/12 20/15/12 18/19/12
f 8/5/13 4/27/13 17/16/13 20/15/13
f 9/24/14 10/23/14 17/2/14 19/1/14
f 16/7/15 5/10/15 1/28/15 13/29/15 9/30/15 19/31/15 3/32/15 7/6/15 18/19/15 11/20/15
