# Blender v2.93.4 OBJ File: ''
# www.blender.org
mtllib StairTile1.mtl
o Plane
v 1.000000 0.000000 -1.000000
v 1.000000 0.000000 -1.000000
v 1.000000 0.000000 1.000000
v 1.000000 0.000000 0.500000
v -3.000000 2.000000 0.500000
v -1.000000 1.000000 0.500000
v -3.000000 2.000000 -0.500000
v 1.000000 0.000000 -0.500000
v 0.000000 0.000000 1.000000
v 0.000000 0.000000 -1.000000
v 0.000000 0.000000 0.500000
v 0.000000 0.000000 -0.500000
v -1.000000 2.000000 1.000000
v 0.000000 2.000000 -1.000000
v -1.000000 2.000000 0.500000
v 0.000000 2.000000 0.500000
v -1.000000 2.000000 -0.500000
v 0.000000 2.000000 -0.500000
v 0.000000 2.000000 1.000000
v -1.000000 1.000000 -0.500000
v -1.000000 2.000000 -1.000000
vt 0.500000 0.750000
vt 1.000000 0.750000
vt 1.000000 1.000000
vt 0.500000 1.000000
vt 0.500000 1.000000
vt 0.500000 0.750000
vt 0.500000 0.000000
vt 1.000000 0.000000
vt 1.000000 0.250000
vt 0.500000 0.250000
vt 0.000000 0.250000
vt 0.000000 0.250000
vt 0.500000 0.250000
vt 0.000000 0.000000
vt 0.500000 0.000000
vt 0.000000 0.750000
vt 0.000000 1.000000
vt 0.000000 0.750000
vt 0.000000 0.000000
vt 0.000000 0.000000
vn 0.0000 1.0000 0.0000
vn 1.0000 0.0000 0.0000
vn 0.0000 0.0000 -1.0000
vn 0.0000 0.0000 1.0000
vn 0.4472 0.8944 0.0000
usemtl None
s off
f 12/1/1 8/2/1 2/3/1 10/4/1
f 12/1/2 10/4/2 14/5/2 18/6/2
f 9/7/1 3/8/1 4/9/1 11/10/1
f 11/10/3 6/11/3 15/12/3 16/13/3
f 13/14/1 19/15/1 16/13/1 15/12/1
f 17/16/1 18/6/1 14/5/1 21/17/1
f 20/18/4 12/1/4 18/6/4 17/16/4
f 9/7/2 11/10/2 16/13/2 19/15/2
f 11/10/4 4/9/4 6/11/4
f 20/18/3 8/2/3 12/1/3
f 20/19/5 6/20/5 4/9/5 8/2/5
l 5 7
